<svg version="1.1" xmlns="http://www.w3.org/2000/svg" xmlns:xlink="http://www.w3.org/1999/xlink" x="0px" y="0px" viewBox="0 0 1000 1000" enable-background="new 0 0 1000 1000" xml:space="preserve">
  <g>
    <path d="M413.3,577.7c-7.3-7.3-18.5-7.8-25-1.3l-34.2,34.2l-34.2-34.2c-6.5-6.5-17.7-6-25,1.3c-7.3,7.3-7.8,18.5-1.3,25l34.2,34.2l-34.2,34.2c-6.5,6.5-6,17.7,1.3,25c7.3,7.3,18.5,7.8,25,1.3l34.2-34.2l34.2,34.2c6.5,6.5,17.7,6,25-1.3c7.3-7.3,7.8-18.5,1.3-25l-34.2-34.2l34.2-34.2C421.1,596.2,420.5,585,413.3,577.7z"/><path d="M709.4,651.5H575.4c-9.2,0-16.7,12-16.7,22.3c0,10.3,7.5,22.3,16.7,22.3h134c9.2,0,16.7-12,16.7-22.3C726.1,663.4,718.6,651.5,709.4,651.5z"/><path d="M709.4,589.1H575.4c-9.2,0-16.7,7.5-16.7,17.8c0,10.3,7.5,17.8,16.7,17.8h134c9.2,0,16.7-7.6,16.7-17.8C726.1,596.6,718.6,589.1,709.4,589.1z"/><path d="M421,339.6H287.1c-9.2,0-16.7,7.5-16.7,17.8c0,10.3,7.5,17.8,16.7,17.8H421c9.2,0,16.7-7.6,16.7-17.8C437.8,347.2,430.3,339.6,421,339.6z"/><path d="M709.4,339.6h-49v-48.7c0-9.2-7.5-16.7-17.8-16.7c-10.3,0-17.8,7.5-17.8,16.7v48.7h-49.3c-9.2,0-16.7,7.5-16.7,17.8c0,10.3,7.5,17.8,16.7,17.8h49.3v49.6c0,9.2,7.5,16.7,17.8,16.7c10.3,0,17.8-7.5,17.8-16.7v-49.6h49c9.2,0,16.7-7.6,16.7-17.8C726.1,347.2,718.6,339.6,709.4,339.6z"/><path d="M500,10C229.4,10,10,229.4,10,500c0,270.6,219.4,490,490,490c270.6,0,490-219.4,490-490C990,229.4,770.6,10,500,10z M482.2,730.1c0,20.5-16.7,37.2-37.2,37.2H261c-20.5,0-37.2-16.7-37.2-37.2V555c0-20.5,16.7-37.2,37.2-37.2h184c20.5,0,37.2,16.7,37.2,37.2V730.1z M482.2,445c0,20.5-16.7,37.2-37.2,37.2H261c-20.5,0-37.2-16.7-37.2-37.2v-175c0-20.5,16.7-37.2,37.2-37.2h184c20.5,0,37.2,16.7,37.2,37.2V445z M767.3,730.1c0,20.5-16.7,37.2-37.2,37.2H546.1c-20.6,0-37.2-16.7-37.2-37.2V555c0-20.5,16.7-37.2,37.2-37.2h183.9c20.5,0,37.2,16.7,37.2,37.2V730.1z M767.3,445c0,20.5-16.7,37.2-37.2,37.2H546.1c-20.6,0-37.2-16.7-37.2-37.2v-175c0-20.5,16.7-37.2,37.2-37.2h183.9c20.5,0,37.2,16.7,37.2,37.2V445z"/>
  </g>
</svg>